<?xml version="1.0" encoding="utf-8"?>
<!-- Generator: Adobe Illustrator 22.0.1, SVG Export Plug-In . SVG Version: 6.00 Build 0)  -->
<svg version="1.1" id="Layer_1" xmlns="http://www.w3.org/2000/svg" xmlns:xlink="http://www.w3.org/1999/xlink" x="0px" y="0px"
	 viewBox="0 0 200 200" style="enable-background:new 0 0 200 200;" xml:space="preserve">
<style type="text/css">
	.st0{fill:#FFDE17;}
</style>
<g>
	<path class="st0" d="M7.6,102.2c-0.8,0.1-1.5,0.2-1.5,0.2l0.1,0.3C6.6,102.5,7.1,102.4,7.6,102.2z"/>
	<polygon class="st0" points="8.7,98.5 8.2,98.6 8.3,98.8 	"/>
	<path class="st0" d="M6.1,102.7c0.2,1.1,1,2.1,0.3,3.2c-0.8,0.1-2.5,0.3-3.3,0.4c-0.8,0.7,0.1,1.2,0.2,1.8
		c-0.8,0.1-1.7,0.2-1.6,0.5c-0.5,0.8,0.5,1.2,2.1,1.3C7,106.1,16,104,6.1,102.7z"/>
	<path class="st0" d="M12.5,99.6l-4.4,0.5c-0.4,0.7-0.9,1.5-0.4,2.1C9.9,101.5,11.3,100.7,12.5,99.6z"/>
	<path class="st0" d="M34.9,86.9c0,0.2,0,0.3-0.8,0.1C34.3,87,34.6,87,34.9,86.9c0-0.2-0.1-0.4,0.3-0.6c-2.9,0.6-6.3,1.4-9.7,1.9
		c-0.4,0.4-0.8,0.7-1.1,1.1c8.2-1.3,16.5-2.1,23.2-4.2C42.7,85.6,39.5,86.3,34.9,86.9z"/>
	<path class="st0" d="M24,91.2c-0.3,0-0.6,0.1-0.8,0.1C23.9,91.5,24,91.4,24,91.2z"/>
	<path class="st0" d="M172,87.5c5,0.4,9.4-0.1,13.7-0.8c-9,0.2-18.7-1-26.2-0.9C163.7,86.4,167.9,86.9,172,87.5z"/>
	<path class="st0" d="M181.8,111.2c4.5,0.8,8.4,0.9,12.2,0.6l1.2-28.2c-1.3,0.2-2.6,0.5-3.8,0.7c1.3,0,2.6-0.1,3.8-0.2l-1.2,27.1
		c-3.6-0.1-7.2-0.3-10.8-0.4C182.8,111,182.3,111.1,181.8,111.2z"/>
	<path class="st0" d="M189,110c1.8,0.2,3.5,0.2,5.2,0.2l1.1-24.9c-3.3,0.4-6.3,0.9-9.5,1.4c3.3-0.1,6.6-0.3,9.5-0.8l-1,23.6
		C192.4,109.6,190.6,109.8,189,110z"/>
	<path class="st0" d="M86.5,103.3c-3.7,0.9-5.9,1.3-7.2,1.4c-0.6,0.4-1.3,1-2.3,1.6c0.2,0,0.4,0,0.7,0c3.8-0.7,7.6-1.1,11.5-1.6
		c1.6-0.4,3.1-0.7,4.4-1.2C91.3,103.4,88.9,103.3,86.5,103.3z"/>
	<path class="st0" d="M79.4,104.7C84.1,101.1,74.4,105.2,79.4,104.7z"/>
	<path class="st0" d="M103.7,86.3l0.6,0c0.6,0,1.1-0.1,1.7-0.1C105.3,86.2,104.5,86.2,103.7,86.3z"/>
	<path class="st0" d="M149.8,98.5c-3.3-0.3-6.6-0.5-9.8-0.6C143.3,98.2,146.6,98.4,149.8,98.5c3.3,0.3,6.4,0.4,9.3,0.4
		c-0.8-0.1-1.6-0.5-2.5-0.7C154.8,98.6,152.3,98.8,149.8,98.5z"/>
	<path class="st0" d="M77.3,88.9c9.2-0.9,18.2-1.8,27-2.6c8.9,0.3,17.7,0.6,26.1,0.9c8.5,0.3,16.7,0.5,24.6,0.3
		c11.1-0.4,28,2.6,40.2,0.1l-0.9,20.4c-3.5,0.3-6.7,0.8-9.5,1.5c1.4,0.3,2.8,0.4,4.2,0.6c-2,0.2-3.9,0.5-5.7,0.9
		c-22.3-0.9-44.2-2.2-66.9-4.2c-3.4-0.3-5.9,0.4-9.2,0.1c-3.3-0.2-6.6-0.4-9.7-0.5l0.1,0.2c-3.3-0.1-6.5-0.1-9.7,0
		c-3.2,0.1-6.5,0.4-9.8,0.6c-3.3,0.3-6.6,0.5-10,0.8c-3.5,0.4-6.9,0.8-10.4,1.2c-6.6,0.7-13.2,0.8-19.9,1.4c-2.5,0.2-2.6-1-4.3-1.1
		c-6.7-0.9-11.8-1.7-19.3-1.5c0,0-0.1-0.6-0.1-0.9c-1.1,0.2-2.2,0.3-3,0.3c3.2-3.7,12.3-5.8,2.3-7.1v0c0.5-0.2,1-0.3,1.5-0.4l0.2,0
		l0,0c2.2-0.7,3.6-1.4,4.8-2.5c-1.5,0.1-2.9,0.3-4.4,0.4c0.2-0.4,0.4-0.9,0.2-1.3L16,96c0.7-0.1,1.2-0.1,1.2-0.1
		c0.2-0.2,0.3-0.5,0.4-0.7c3.7-1.6,9.8-2.9,8.5-4c-1-0.5-3.7,0.2-6.9,0.9c-0.2-0.1-0.4-0.2-0.7-0.2c4.2-0.7-0.2-2.1,2.3-2.6
		c3.4-0.3,6.7-0.9,10.1-1.2c13.8-1.1,25.3-2.2,38.9-3.7c0.6-0.1,1.2-0.1,1.8-0.2c3.3-0.3,6.6-0.5,9.8-0.6c1.6-0.1,3.2-0.1,4.8-0.1
		c1.6,0,3.3,0.1,4.9,0.2c-0.4,0.2-0.9,0.4-1.3,0.5c5.3,0.3,10.5,0.7,15.7,0.6c12.9-0.2,25.5-0.2,39,0.7c14.1,1,27.8,1.6,42.2,1.8
		c-5.9,0.1-11.8,0.2-17.8-0.1c-2.7-0.3-5.4-0.5-8-0.7c2.7,0.3,5.3,0.5,8,0.7c9.6,1,19.3,2.1,27.2,0.7l-0.8,19.6
		c-0.7,0.2-1.4,0.4-2.1,0.6c-0.9-0.3-0.9-0.6-1.8-0.6c-6.4-0.2-12.5-1.1-17.9-0.6c0,0.3-2.6,0-1.9,0.7c-5.3-0.4-11.2-1.3-16.2-1.4
		c-2.2-0.1-4.4,0.2-6.6,0.6c-17.7-0.8-35.1-0.5-53.9,0.7c-4.7,0.2-10,0.2-14.8,0.3c6.9-1.1,14.1-1.9,21.4-2.4
		c7.1,0.4,13.8,0.8,19.5-0.3c1.3-0.2,2.6-0.3,4-0.5c-7.9,0-15.8,0.3-23.5,0.8c-4.2-0.3-8.5-0.5-12.7-0.6l0.3-0.1
		c3.3-0.3,6.6-0.7,10-0.9c3.2,0.2,6.3,0.3,9.2,0.4c3,0,5.8-0.1,8.4-0.4c0.7-0.1,1.3-0.2,1.9-0.3c1.3-0.2,2.6-0.4,4-0.5
		c-4.9,0-9.8,0.1-14.6,0.4c-3,0.1-6,0.3-8.9,0.5c-1.9-0.1-3.7-0.2-5.6-0.3c0.2-0.1,0.4-0.1,0.6-0.2c1.6-0.3,6.3-3.6,3.9-4.6
		c-6.4-0.1-14,0.2-20.1,0.7c-3,0.2-5.6,0.4-7.5,0.6c-1.9,0.2-3,0.2-3,0.2c-0.4-0.6,4.8-1.5,10-2.2c5.2-0.7,10.5-1.1,10.1-1.3
		c-1.2-0.1-2.5-0.2-3.7-0.3c1.2-0.2,2.3-0.5,3.4-0.8c2.5-0.3,5.8,0.1,7.5-0.5c5.9-1.7,12.5-0.9,19.3-1.7c2.1-0.3,4.5-0.7,6.9-1.1
		c2.5-0.4,5-0.8,7.6-1.2c0.1-0.6,2.6-0.1,1.8-0.7c2.4,0.2,4.9,0.5,7.2,0.5c2.2,0,4.2-0.2,5.3-0.9l0.4,0c0.3,0,0.8,0,1.3-0.1
		c7.9,1.3,13.6,0.4,20.9,0.4c2.5,0.2,4.9,0.5,7.5,0.8c-1.7-0.2-4.1-0.9-5.8-0.8c-0.6,0-1.1,0-1.7,0c-6.4-0.6-12.6-0.7-18.8-0.8
		c-0.5,0.1-1.4,0.3-2.1,0.4c-0.4-0.1-0.9-0.1-1.3-0.2l-0.4,0.3c-3,0.1-6.1,0-9.1,0c-3,0-5.9,0-8.4,0.3c-9.4,0.3-19.3-0.7-28.9-1.1
		c4.8-0.4,9.5-0.8,14.1-1.1c-5.8,0.2-11.3,0.6-16.5,1.1c-0.8,0-1.6,0-2.4,0c-1.7,0-3.4,0-5.1,0c1.6,0.1,3.1,0.2,4.7,0.3
		c-3.2,0.3-6.3,0.7-9.3,1.1c-16.8,1.6-34.1,3.3-51,5c0.3-0.4,0.6-0.8,1-1.2c8.2-1.1,16.3-1.8,23-3.9c-4.8,0.3-8,1.1-12.6,1.6
		c0-0.2-0.1-0.4,0.3-0.6c-2.9,0.6-6.3,1.3-9.6,1.7c1-0.9,2.1-1.8,3.2-2.7c1.6-0.8,4.1-1,6.7-1.6c10.9-1.5,21.3-2,32.1-3
		c9.7-0.1,19.3,0,28.8,0.3C94.3,86.7,85.7,87.6,77.3,88.9z M31.3,99.7c0.8-0.2,1.7-0.4,2.6-0.6c-0.1-0.1-0.3-0.1-0.4-0.2
		C32.7,99,31.9,99.3,31.3,99.7z M50.9,98.5c-5.8-0.1-13.3,1.1-20.5,2.2l0,0.2C36.5,100.7,43.9,99.4,50.9,98.5z M74,103.6l-0.1-0.1
		l0,0.1L74,103.6z M175.7,100.8c-6.9,0.9-15.3,0.1-23.7,0c-2.5-0.2-5.1,0.7-8.5,0.4c-4.2-0.1-6.8,0.3-10.2,0.3l2.5,0.8
		c-5.9-0.8-9.4,0.7-15.2-0.4c0,0.3-0.9,0.8-1.8,0.7c-4.2-0.1-8.4-1-11.7-0.7c-4.1,0-8.2-0.3-11.5,0.1c-0.8,0-2.5,0.8-4.1,1
		c-2,0.1-3.9,0.1-5.8,0.2l0.2,0.2c1.6,0,3.1,0,4.8-0.1c4.8-0.5,10.5-0.7,15.4-0.6c6.2,0.2,12.4,0.3,18.4,0.3c6,0,12-0.1,17.9-0.1
		c2.5-0.1,5.1-0.4,7.7-0.5c7.7-0.5,16.9,0.6,22.1-1C173.2,101.2,174.9,101.3,175.7,100.8z M186.3,88.8c-9,0.5-18.9,0.2-27.2-0.8
		c-6.7-0.6-26.2-0.5-23.2,3.3C144.8,85.6,191.5,96.1,186.3,88.8z M133.6,104.6c3.5-0.2,6.8-0.1,10.7,0.3
		C140.7,104.8,137.1,104.7,133.6,104.6z M170.4,97.3c-5.6,0.3-11.3,0-17-0.3c-2.8-0.1-5.7-0.3-8.5-0.4c-2.8-0.1-5.6-0.2-8.3-0.2
		c-8.4,0-17.5-2.1-25.1-0.4l0,0.9l0.8-0.3c2.9,0.3,5.2,1,7.6,1.4c-0.1,0-0.3,0-0.4,0.1c0.2,0,0.5,0,0.7,0c1.6,0.3,3.3,0.5,5.3,0.4
		c0.9-0.1,1.8-0.1,2.7-0.2c10.4,0.4,21.1,1.2,30.8,0.8c6,0,11.2-0.7,17.3-0.9C174.6,97.8,172.1,97.2,170.4,97.3z"/>
	<path class="st0" d="M92.9,89.5c-3.6,0.3-7.3,0.7-11,1c-2.8,0.4-5.7,0.9-8.5,1.4c-13.4,2-29.1,2.5-43.3,5c-0.3,0.9-0.3,1.8,0.4,2.7
		c15.5-0.9,31-3.6,46.6-3.4l0.4-0.1c6.6-1.9,17.5-1.4,25.9-2.5c8.4-1.5,16.9-1.6,25.4-2.4C116.5,90.1,104.9,90.2,92.9,89.5z"/>
	<path class="st0" d="M191.4,84.3c-3,0.1-6,0-9.2-0.1c-8.7-0.2-17-0.6-25.7-0.8c6.3,0.7,12.4,1.6,18.5,2.4
		C181.1,86.3,186.3,85.3,191.4,84.3z"/>
	<path class="st0" d="M149.5,83.4c2.4,0,4.7,0,7.1,0c-9.3-1.1-18.7-1.8-27.9-2.2c-15.3-0.1-30.6,0.4-45.8,2.1
		c-1.7,0.2-3.4,0.3-5.1,0.5c28.2-0.3,56.1,2.2,80.4,2c0.4,0,0.9,0,1.4,0c-11.3-1.4-22.7-2.3-34-2.7C133.5,83,141.5,83.2,149.5,83.4z
		"/>
	<path class="st0" d="M96.4,89.2c-0.8,0-1.6,0-2.4-0.1c-0.9,0.1-1.9,0.2-2.8,0.3c0.6,0,1.1,0.1,1.7,0.1
		C94.1,89.4,95.3,89.3,96.4,89.2z"/>
	<path class="st0" d="M119.9,97.9l0.3,0.1c2.6,0,5.3,0.1,8,0.2c3.7-0.2,7.7-0.3,11.7-0.2C132.7,97.5,125.6,97.2,119.9,97.9z"/>
	<path class="st0" d="M142,107.1c0.8,0.1,2.4,0.3,3.2,0.4l1.5-0.3c-0.8-0.1-1.5-0.2-2.3-0.4L142,107.1z"/>
	<path class="st0" d="M193.2,108.1c-16.3,0.9-30.9-0.9-44.3-1.4c-0.7,0.1-1.4,0.3-2,0.4c8.9,1.3,18.1,2.5,27.2,1.9
		c1.8-0.1,4.5-0.7,6.3-0.5c5,0.3,10,0.2,14.9-0.3l0.9-21.2c-3.2,0.1-6.3,0.1-9.5,0.2c3.1,0,6.2,0.1,9.4,0.1l-0.9,20.4
		c-0.6,0-1.2,0.1-1.8,0.1L193.2,108.1z"/>
</g>
</svg>
